<?xml version="1.0" encoding="UTF-8"?>
<svg id="Layer_1" xmlns="http://www.w3.org/2000/svg" version="1.1" viewBox="0 0 1200 1054.1">
  <!-- Generator: Adobe Illustrator 30.2.1, SVG Export Plug-In . SVG Version: 2.1.1 Build 1)  -->
  <defs>
    <style>
      .st0 {
        fill: #ffefd4;
        fill-rule: evenodd;
      }
    </style>
  </defs>
  <path class="st0" d="M815.2,196.4c0-11.6,9.4-21,21-21h47.2c63.8,0,115.5,51.7,115.5,115.5v401.5c0,50.7-41.1,91.8-91.8,91.8h-307.1v-42h307.1c27.6,0,49.9-22.3,49.9-49.9s-22.3-49.9-49.9-49.9h-70.9c-11.6,0-21-9.4-21-21v-309.7h-215.2v-42h215.2v-73.5ZM956.9,615.2v-324.4c0-40.6-32.9-73.5-73.5-73.5h-26.3v383.2h49.9c18.4,0,35.5,5.4,49.9,14.7h0Z"/>
  <path class="st0" d="M384.8,857.7c0,11.6-9.4,21-21,21h-94.5c-37.7,0-68.2-30.5-68.2-68.2v-425.2c0-63.8,51.7-115.5,115.5-115.5h283.4v42h-283.4c-40.6,0-73.5,32.9-73.5,73.5v362.1c8.1-3.3,17-5.2,26.3-5.2h330.7v42h-215.2v73.5ZM342.8,784.2h-73.5c-14.5,0-26.3,11.8-26.3,26.3s11.8,26.3,26.3,26.3h73.5v-52.5Z"/>
  <path class="st0" d="M445.5,384.3c8.2,8.2,8.2,21.5,0,29.7l-66.8,66.8c-8.2,8.2-21.5,8.2-29.7,0-8.2-8.2-8.2-21.5,0-29.7l66.8-66.8c8.2-8.2,21.5-8.2,29.7,0h0Z"/>
  <path class="st0" d="M445.5,480.9c-8.2,8.2-21.5,8.2-29.7,0l-66.8-66.8c-8.2-8.2-8.2-21.5,0-29.7,8.2-8.2,21.5-8.2,29.7,0l66.8,66.8c8.2,8.2,8.2,21.5,0,29.7Z"/>
  <path class="st0" d="M484.5,432.6c0-11.6,9.4-21,21-21h177.1c44.2,0,80,35.8,80,80s-35.8,80-80,80h-248c-14.5,0-26.3,11.8-26.3,26.3s11.8,26.3,26.3,26.3h307.1c11.6,0,21,9.4,21,21s-9.4,21-21,21h-307.1c-37.7,0-68.2-30.5-68.2-68.2s30.5-68.2,68.2-68.2h248c21,0,38.1-17,38.1-38.1s-17-38.1-38.1-38.1h-177.1c-11.6,0-21-9.4-21-21h0Z"/>
</svg>