<?xml version="1.0" encoding="UTF-8"?>
<svg id="Layer_1" xmlns="http://www.w3.org/2000/svg" version="1.1" viewBox="0 0 1200 1007.8">
  <!-- Generator: Adobe Illustrator 30.2.1, SVG Export Plug-In . SVG Version: 2.1.1 Build 1)  -->
  <defs>
    <style>
      .st0 {
        fill: #ffefd4;
      }
    </style>
  </defs>
  <path class="st0" d="M997.4,248c-13.1,0-25.9,0-38.2.4v-57.7c0-17.3-13.8-31.3-30.9-31.5-197.3-2-295.6,72.3-328.2,103.7-32.6-31.4-130.7-105.7-328.2-103.7-17.1.2-30.9,14.3-30.9,31.5v57.7c-12.4-.4-25-.5-38.2-.4-10.2,0-18.5,7.1-18.5,15.4v481.7c0,8.8,9,15.9,19.7,15.4,53.4-2.2,205.5-1,337.1,73,35.9,20.2,82.3,20.2,118.2,0,131.6-74.1,283.8-75.3,337.1-73,10.7.4,19.7-6.6,19.7-15.4v-481.7c0-8.4-8.2-15.4-18.5-15.4h0ZM279.2,191.1c198.3,0,287.3,82.5,304.9,101.1v363.9c0,8.7,7.1,16,16,16s16-7.1,16-16v-363.9c17.4-18.7,105.9-101.6,305.7-101.6s3.8,0,5.7,0v59.1c0,0,.7,422,.7,422-49.6-2.6-176.7-.3-288.1,75.8-24.1,16.4-55.4,16.4-79.5,0-95.1-64.9-201.5-76.2-261.2-76.2s-19.2.3-26.4.7l-.5-422.5v-58.7c0,0,7.1,0,7.1,0h0Z"/>
</svg>