<?xml version="1.0" encoding="UTF-8"?>
<svg id="Layer_1" xmlns="http://www.w3.org/2000/svg" version="1.1" viewBox="0 0 1200 1200">
  <!-- Generator: Adobe Illustrator 30.2.1, SVG Export Plug-In . SVG Version: 2.1.1 Build 1)  -->
  <defs>
    <style>
      .st0 {
        fill: #ffefd4;
      }
    </style>
  </defs>
  <path class="st0" d="M913.8,143.4h-43.1v-43.1c0-5.5-2.2-10.8-6.1-14.7-3.9-3.9-9.2-6.1-14.7-6.1H286.2c-5.5,0-10.8,2.2-14.7,6.1-3.9,3.9-6.1,9.2-6.1,14.7v807.9c0,2.7.6,5.4,1.7,7.9,1,2.6,2.5,4.9,4.4,6.9l64.3,63.9c3.9,3.8,9.1,6,14.6,6h53.1v106.8c0,3.9,1.1,7.7,3.1,11,2.1,3.3,5,6,8.5,7.7,3.5,1.7,7.5,2.4,11.4,1.9,3.9-.4,7.6-2,10.7-4.4l46-37.1,45.8,36.4c3.1,2.5,6.8,4,10.7,4.4,3.9.4,7.9-.2,11.4-1.9,3.5-1.7,6.5-4.3,8.6-7.7,2.1-3.3,3.2-7.2,3.2-11.1v-106.2h350.8c5.5,0,10.8-2.2,14.7-6.1,3.9-3.9,6.1-9.2,6.1-14.7V164.2c0-5.5-2.2-10.8-6.1-14.7-3.9-3.9-9.2-6.1-14.7-6.1h0ZM829,887.3h-437.2V121.1h437.2v766.2ZM307,121.1h41.6v766.2h-41.6V121.1ZM521.3,1056.6l-25.4-19.4c-3.7-3-8.3-4.6-13-4.6s-9.3,1.6-13,4.6l-25,20.8v-65.2h76.2l.2,63.7ZM893,951.3H359.1l-22.5-22.3h513.2c5.5,0,10.8-2.2,14.7-6.1,3.9-3.9,6.1-9.2,6.1-14.7V185h22.3v766.2Z"/>
</svg>