<?xml version="1.0" encoding="UTF-8"?>
<svg id="Layer_1" xmlns="http://www.w3.org/2000/svg" version="1.1" viewBox="0 0 1200 1200">
  <!-- Generator: Adobe Illustrator 30.2.1, SVG Export Plug-In . SVG Version: 2.1.1 Build 1)  -->
  <defs>
    <style>
      .st0 {
        fill: #ffefd4;
      }
    </style>
  </defs>
  <path class="st0" d="M613.3,906.7h-173.3c-14.7,0-26.7-12-26.7-26.7s12-26.7,26.7-26.7h173.3c14.7,0,26.7,12,26.7,26.7s-12,26.7-26.7,26.7h0Z"/>
  <path class="st0" d="M971.3,342.7c-4.6-3.1-109.4-70.9-109.4-220.3s-13.9-30.8-30.8-30.8h-462.2c-84.7,0-154.1,69.3-154.1,154.1v708.7c0,84.7,69.3,154.1,154.1,154.1h585.5c16.9,0,30.8-13.9,30.8-30.8V368.9c0-10.8-6.2-20-13.9-26.2h0ZM368.9,153.2h431.4v647.1h-431.4c-35.4,0-66.2,12.3-92.4,30.8V245.6c0-50.8,41.6-92.4,92.4-92.4h0ZM368.9,1046.8c-50.8,0-92.4-41.6-92.4-92.4s41.6-92.4,92.4-92.4h432.9c3.1,35.4,10.8,64.7,21.6,92.4h-84.7c-16.9,0-30.8,13.9-30.8,30.8s13.9,30.8,30.8,30.8h115.6c7.7,10.8,15.4,21.6,23.1,30.8h-508.4ZM923.6,1008.3c-29.3-35.4-61.6-94-61.6-177.2v-511.5c23.1,32.4,46.2,53.9,61.6,64.7v624Z"/>
</svg>