<?xml version="1.0" encoding="UTF-8"?>
<svg width="1200pt" height="1200pt" version="1.1" viewBox="0 0 1200 1200" xmlns="http://www.w3.org/2000/svg">
 <path d="m1159 383.05h-35.504c0.75-7.9023-2.6172-14.605-10.102-20.109-1.0117-0.47656-23-10.734-60.172-22.297v-114.34c0-9.707-7.8711-17.578-17.578-17.578-149.7 0-263.33 45.816-332.29 84.254-38.828 21.641-68.082 43.238-87.539 59.312-2.9609-32.207-10.672-81.043-30.559-132.78-45.453-118.27-133-194.1-253.17-219.28-12.523-0.98828-19.582 4.7461-21.184 17.207v80.324c-30.895-12.535-63.066-22.391-96.004-29.293-12.52-0.98828-19.582 4.7461-21.184 17.207v242.1c-64.719 15.426-105.28 34.305-107.09 35.152-7.4844 5.5039-10.852 12.207-10.102 20.109h-35.504c-22.613 0-41.016 18.402-41.016 41.016v537.52c0 22.727 35.156 22.727 35.156 0v-537.52c0-3.2305 2.6289-5.8594 5.8594-5.8594h35.504v691.23c0 9.707 7.8711 17.578 17.578 17.578h1011.8c9.707 0 17.578-7.8711 17.578-17.578v-691.23h35.504c3.2305 0 5.8594 2.6289 5.8594 5.8594v734.79c0 3.2305-2.6289 5.8594-5.8594 5.8594h-506.14c-28.496-29.348-77.195-29.348-105.7 0h-506.14c-3.2305 0-5.8594-2.6289-5.8594-5.8594v-90.234c0-22.727-35.156-22.727-35.156 0v90.234c0 22.613 18.402 41.016 41.016 41.016h514.17c5.4961 0 10.676-2.5703 14-6.9453 15.289-20.133 46.344-20.133 61.637 0 3.3242 4.375 8.5039 6.9453 14 6.9453h514.16c22.613 0 41.016-18.402 41.016-41.016v-734.79c0-22.617-18.402-41.016-41.016-41.016zm-140.93-138.94v179.98c0 9.707 7.8711 17.578 17.578 17.578 9.707 0 17.578-7.8711 17.578-17.578v-46.52c15.43 5.0938 27.391 9.6992 35.117 12.859v640.12c-129.91-41.121-237.65-37.043-315.16-21.32 67.516-29.574 155.52-53.883 262.46-53.883 9.707 0 17.578-7.8711 17.578-17.578v-405.87c0-9.707-7.8711-17.578-17.578-17.578-9.707 0-17.578 7.8711-17.578 17.578v388.5c-141.04 3.3945-248.47 47.125-314.71 84.043-37.621 20.969-66.285 41.91-85.727 57.812v-664.58c26.758-25.656 166.12-147.68 400.43-153.56zm-672-204.37c97.844 26.668 167.08 90.953 205.98 191.35 31.684 81.777 30.434 158.1 30.418 158.89-0.003906 0.13281-0.003906 0.26563-0.003906 0.39453v533.48c-44.352-109.63-125.77-181.57-236.39-208.97zm-35.156 96.145v593.01c0 8.3164 5.832 15.5 13.973 17.207 109.09 22.852 185.51 88.945 227.16 196.44 11.285 29.125 18.391 57.555 22.859 82.129-13.562-19.598-30.652-41.898-51.621-65.07-56.75-62.719-153.32-143.23-294.41-176.55l0.003906-441.42v-0.0625-233.78c28.184 7.1211 55.66 16.539 82.031 28.102zm-199.22 254.54c14.297-5.8477 43.129-16.648 82.031-26.43v433.14c0 8.3164 5.832 15.5 13.973 17.207 138.93 29.105 233.66 107.37 288.66 167.9 22.43 24.684 40.285 48.523 53.871 68.738-21.375-10.547-48.133-21.684-79.996-31.047-78.066-22.938-202.29-38.852-358.54 10.609zm0 677.11c151.98-50.648 272.15-36.031 346.88-14.383 40.164 11.637 71.781 26.453 93.816 38.711h-440.69zm535.84 24.328c21.645-12.047 52.633-26.582 92.176-38.199 75.047-22.047 195.78-37.07 348.63 13.871v24.328z" fill="#ffefd4"/>
</svg>
