<?xml version="1.0" encoding="UTF-8"?>
<svg width="1200pt" height="1200pt" version="1.1" viewBox="0 0 1200 1200" xmlns="http://www.w3.org/2000/svg">
 <path d="m1050 300c-0.03125-29.828-11.895-58.422-32.988-79.512-21.09-21.094-49.684-32.957-79.512-32.988h-188.39c-0.097656-29.789-11.965-58.332-33.02-79.406-21.055-21.074-49.59-32.969-79.379-33.094h-73.68c-29.828 0.03125-58.422 11.895-79.516 32.988-21.09 21.09-32.953 49.684-32.984 79.512h-188.03c-35.859-0.10156-69.602 16.945-90.801 45.867-21.195 28.922-27.293 66.234-16.398 100.4 10.891 34.164 37.457 61.062 71.484 72.379l36.301 613c1.7188 28.625 14.293 55.52 35.164 75.191 20.867 19.668 48.457 30.637 77.133 30.66h449.23c28.676-0.023438 56.266-10.992 77.133-30.66 20.871-19.672 33.445-46.566 35.164-75.191l36.301-613v-0.003907c22.297-7.4297 41.703-21.668 55.477-40.711 13.777-19.043 21.23-41.93 21.309-65.434zm-486.97-150h73.68c9.9297 0.035156 19.441 4 26.453 11.027 7.0117 7.0273 10.957 16.543 10.973 26.473h-148.61c0.011719-9.9414 3.9688-19.473 10.996-26.504 7.0312-7.0273 16.562-10.984 26.504-10.996zm299.03 864.71h-0.003906c-0.57031 9.543-4.7656 18.512-11.727 25.066-6.957 6.5586-16.156 10.211-25.715 10.219h-449.23c-9.5586-0.007812-18.758-3.6602-25.715-10.219-6.9609-6.5547-11.156-15.523-11.727-25.066l-35.652-602.21h595.42zm75.438-677.21h-675c-13.398 0-25.777-7.1484-32.477-18.75-6.6992-11.602-6.6992-25.898 0-37.5 6.6992-11.602 19.078-18.75 32.477-18.75h675c13.398 0 25.777 7.1484 32.477 18.75 6.6992 11.602 6.6992 25.898 0 37.5-6.6992 11.602-19.078 18.75-32.477 18.75zm-470.09 454.56 79.559-79.559-79.559-79.559c-9.4727-9.4727-13.172-23.281-9.707-36.219 3.4688-12.941 13.574-23.047 26.516-26.516 12.938-3.4648 26.746 0.23438 36.219 9.707l79.559 79.559 79.559-79.559c9.4727-9.4727 23.281-13.172 36.219-9.707 12.941 3.4688 23.047 13.574 26.516 26.516 3.4648 12.938-0.23438 26.746-9.707 36.219l-79.559 79.559 79.559 79.559c9.4727 9.4727 13.172 23.281 9.707 36.219-3.4688 12.941-13.574 23.047-26.516 26.516-12.938 3.4648-26.746-0.23438-36.219-9.707l-79.559-79.559-79.559 79.559c-9.4727 9.4727-23.281 13.172-36.219 9.707-12.941-3.4688-23.047-13.574-26.516-26.516-3.4648-12.938 0.23438-26.746 9.707-36.219z" fill="#ffefd4"/>
</svg>
