<?xml version="1.0" encoding="UTF-8"?>
<svg width="1200pt" height="1200pt" version="1.1" viewBox="0 0 1200 1200" xmlns="http://www.w3.org/2000/svg">
 <path d="m889.69 168.14c35.766-77.203-76.875-132.84-116.53-56.953 0 0-243.79 498.74-243.79 498.74-57.047-5.3438-115.31 17.578-153.94 62.062l-21.609 24.984c-19.219 22.219-33.75 47.109-44.203 66.328-36.047 66-108.42 108.19-148.36 127.45-29.859 13.266-34.547 57.797-8.1094 77.062 23.484 18.328 47.016 34.453 70.266 48.938 113.25 70.641 219.66 98.438 264.74 107.48 16.125 3.2344 33.094-2.5781 43.875-15.422 99.891-124.6 235.64-309.32 113.86-441.94l243.74-498.71zm-84-41.016c16.828-33.094 67.688-9.0469 51.469 25.125 0 0-239.53 489.98-239.53 489.98-15.375-10.969-33.328-19.781-51.422-25.172 0 0 239.48-489.94 239.48-489.94zm-228.71 532.92c49.453 24.188 79.969 73.312 81.75 125.68l-230.86-112.88c43.266-31.312 100.97-36.469 149.11-12.844zm-177.32 39.328 255.19 124.74c-2.7188 11.766-6.6094 23.203-10.781 35.156l-268.6-131.29c3.7031-5.2031 19.781-23.438 24.188-28.594zm104.77 386.06c-2.25 2.6719-5.7656 3.9375-9.0469 3.2812-15.328-3.0938-45.234-9.9844-83.859-23.109 30.516-27.422 79.5-80.531 100.92-154.31 6.1875-22.969-27.703-32.859-34.781-10.078-23.016 79.172-83.953 133.08-105.28 150-31.406-12.469-66.375-28.641-102.66-49.219 41.625-27.047 106.03-80.391 124.6-135.19 3.1875-9.4688-1.875-19.734-11.344-22.969-9.4688-3.1875-19.734 1.875-22.969 11.344-17.156 50.672-92.484 107.91-125.21 125.81-19.688-12.562-39.562-26.297-59.297-41.672-3.75-2.9531-3.75-6.9375-3.5625-8.5781 0.1875-1.9219 1.125-5.4375 5.1094-7.3594 53.531-25.828 125.53-71.531 164.39-142.69 3.75-6.8906 8.25-14.672 13.125-22.641l275.95 134.86c-26.812 60.422-68.906 124.87-126.05 192.47z" fill="#ffefd4"/>
 <path d="m889.92 603.71-27.281 50.156-42.188 11.438c-23.672 5.4844-26.344 40.969-3.7031 49.875l49.969 21.984 21.516 43.734c4.4531 9.0938 13.688 14.812 23.812 14.812 9.75 0 18.656-5.2969 23.344-13.922l24.047-44.484 50.297-22.125c22.594-8.9531 20.016-44.438-3.75-49.875l-42.188-11.438-27.281-50.156c-9.1875-18.188-37.453-18.234-46.641 0zm44.109 71.109c5.625 12.703 24.516 14.812 36.094 18.281l-28.266 12.422c-12.656 3.9844-22.828 32.672-29.391 42.609-6.4219-10.688-14.625-38.297-27.938-42.656l-28.125-12.375c11.719-3.4688 30.375-5.5312 36.094-18.281l20.766-38.156z" fill="#ffefd4"/>
 <path d="m925.18 994.6-42.141-11.438-27.281-50.156c-4.6406-8.5312-13.594-13.875-23.297-13.875-9.75 0-18.656 5.2969-23.297 13.875l-27.281 50.156-42.141 11.438c-23.672 5.4844-26.344 40.969-3.75 49.922l49.969 21.984 21.516 43.734c8.5781 19.031 37.828 19.641 47.156 0.9375l24.047-44.484 50.297-22.125c22.594-8.9531 19.969-44.438-3.75-49.922zm-64.172 40.266c-12.609 3.9844-22.828 32.672-29.391 42.609l-14.812-30.047c-4.7812-12.844-30.562-19.266-41.25-24.984 11.672-3.4688 30.422-5.5781 36.094-18.281l20.766-38.156 20.766 38.109c5.5312 12.656 24.516 14.906 36.094 18.328z" fill="#ffefd4"/>
 <path d="m1000.4 821.48c-84.562 2.6719-84.516 125.29 0 127.97 84.562-2.6719 84.516-125.29 0-127.97zm0 91.781c-36.516-0.65625-36.469-54.891 0-55.547 36.469 0.65625 36.469 54.891 0 55.547z" fill="#ffefd4"/>
</svg>
