<?xml version="1.0" encoding="UTF-8"?>
<svg id="Layer_1" xmlns="http://www.w3.org/2000/svg" version="1.1" viewBox="0 0 1200 1200">
  <!-- Generator: Adobe Illustrator 30.2.1, SVG Export Plug-In . SVG Version: 2.1.1 Build 1)  -->
  <defs>
    <style>
      .st0 {
        fill: #ffefd4;
      }
    </style>
  </defs>
  <path class="st0" d="M600,63.8L135.6,331.9v536.2l15.4,8.9,449,259.2,464.4-268.1V331.9L600,63.8ZM600,154.3l185.5,274.4h-371l185.5-274.4ZM499.6,192.8l-152.5,225.6-119.1-68.8,271.6-156.8h0ZM700.4,192.8l271.6,156.8-119.1,68.8-152.5-225.6h0ZM197.2,403l119.1,68.8-119.1,244.9v-313.7ZM1002.8,403v313.7l-119.1-244.9,119.1-68.8h0ZM409.9,490.2h380.3l-190.1,329.3-190.1-329.3h0ZM358.9,525l185.5,321.3-330.3-23.5,144.8-297.8h0ZM841.1,525l144.9,297.8-330.3,23.5,185.5-321.3ZM297.6,890.5l271.7,19.3v137.5l-271.7-156.8ZM902.5,890.5l-271.7,156.8v-137.5l271.7-19.3Z"/>
</svg>