<?xml version="1.0" encoding="UTF-8"?>
<svg width="1200pt" height="1200pt" version="1.1" viewBox="0 0 1200 1200" xmlns="http://www.w3.org/2000/svg">
 <path d="m397.97 668.89-99.113-245.18 266.87-38.125zm172.7-308.25-246.1 35.156 250.48-144.61zm210.89 314.27-169.37-286.02 270.55 35.734zm7.0586 36.949-157.26 195.38 243.77-140.74zm97.523 33.207v-264.82l-85.281 210.96zm24-324.18v353.12l-320.45 185.01-1.8594 2.3086-1.9922-2.5547-320.02-184.77v-372l322.16-186 322.16 186v16.109l0.96094 0.38672zm-313.5-58.258 255.82 33.789-253.36-146.28-4.3711 109.27zm-203.43 349.32 153.27 196.38-242.51-140.02zm-12.105-20.738-91.281 57.648v-283.45zm386.84 7.793h0.22656l-180.04 223.68-174.58-223.68zm-345.7-24 165.74-279.9 165.74 279.9z" fill="#ffefd4" fill-rule="evenodd"/>
</svg>
