<?xml version="1.0" encoding="UTF-8"?>
<svg width="1200pt" height="1200pt" version="1.1" viewBox="0 0 1200 1200" xmlns="http://www.w3.org/2000/svg">
 <path d="m891.32 134.86c-22.266-22.359-52.547-34.922-84.141-34.875h-588.14c-65.672 0.09375-118.92 53.344-118.97 119.02v762c0.046876 65.672 53.297 118.92 118.97 119.02h762c65.672-0.09375 118.92-53.344 118.97-119.02v-588.14c0.09375-31.547-12.469-61.875-34.828-84.141zm-241.26 65.156v99.984h-300v-99.984zm-300 800.02v-350.02h500.02v350.02zm650.02-18.984-0.046875-0.046875c0 10.5-8.4844 18.984-18.984 18.984h-30.984v-399.98c0-13.266-5.2969-25.969-14.672-35.344s-22.078-14.672-35.344-14.672h-600c-27.609 0-50.016 22.406-50.016 50.016v399.98h-30.984c-10.5 0-18.984-8.4844-18.984-18.984v-762c0-10.5 8.4844-18.984 18.984-18.984h30.984v150c0 13.266 5.2969 25.969 14.672 35.344s22.078 14.625 35.344 14.625h399.98c13.266 0 26.016-5.25 35.391-14.625s14.625-22.078 14.625-35.344v-150h57.141c5.0156 0 9.8906 1.9688 13.453 5.5312l173.86 173.9c3.5625 3.5625 5.5781 8.3906 5.5781 13.406z" fill="#ffefd4"/>
 <path d="m750.05 699.98h-300c-27.609 0-50.016 22.406-50.016 50.016s22.406 50.016 50.016 50.016h300c27.609 0 50.016-22.406 50.016-50.016s-22.406-50.016-50.016-50.016z" fill="#ffefd4"/>
 <path d="m750.05 849.98h-300c-27.609 0-50.016 22.406-50.016 50.016s22.406 50.016 50.016 50.016h300c27.609 0 50.016-22.406 50.016-50.016s-22.406-50.016-50.016-50.016z" fill="#ffefd4"/>
</svg>
