<?xml version="1.0" encoding="UTF-8"?>
<svg width="1200pt" height="1200pt" version="1.1" viewBox="0 0 1200 1200" xmlns="http://www.w3.org/2000/svg">
 <path d="m1065.8 70.547h-695.63l-0.36328-0.54688c-16.367-32-48.91-51.816-84.91-51.816h-164.91c-52.727 0-95.453 42.727-95.453 95.453v681.27c0 50.91 40 92.547 90.91 95.09h0.91016c9.2734 0 16.91-7.2734 17.453-16.547 0.36328-9.6367-6.9102-17.816-16.547-18.184-32.363-1.4531-57.637-28-57.637-60.184v-681.45c0-33.453 27.09-60.547 60.547-60.547h165.09c22.727 0 43.453 12.547 53.816 32.91l4.3633 8.5469c0.18359 0.36328 0.36328 0.54688 0.54688 0.91016l70.184 136.18c16.363 32 48.91 51.816 84.91 51.816l580.91-0.003906c33.453 0 60.547 27.09 60.547 60.547v450.91c0 31.637-23.816 57.273-55.637 60-9.6367 0.72656-16.727 9.2734-16 18.91 0.72656 9.6367 9.0898 16.727 18.91 16 49.816-4.1836 87.453-44.91 87.453-94.727v-614.55c0.17969-60.91-48.91-110-109.46-110zm14.184 178h-581.27c-22.727 0-43.453-12.547-53.816-32.91l-56.91-110.18h677.82c41.273 0 74.727 33.637 74.727 74.727v90c-16.359-13.633-37.453-21.633-60.543-21.633z" fill="#ffefd4"/>
 <path d="m984.55 877.45c2.9102-11.816 4.3633-24 4.3633-36.547 0-85.816-69.816-155.64-155.45-155.64-24 0-47.453 5.4531-68.547 15.816-28.91-97.637-119.09-166-223.09-166-128.36 0-232.73 104.36-232.73 232.73 0 18 2 35.816 6.1836 53.09-101.82-2.9102-185.64 79.273-185.64 180.55 0 99.453 80.91 180.36 180.55 180.36h641.64c84.91 0 154-69.09 154-153.82-0.1875-72.906-51.824-135.27-121.28-150.54zm-32.91 269.46h-641.64c-80.363 0-145.64-65.273-145.64-145.45 0-80.363 65.273-145.64 145.64-145.64 8.5469 0 17.09 0.72656 25.637 2.3633 7.0898 1.4531 14 3.4531 20.727 6 2 0.72656 4 1.0898 6 1.0898 7.0898 0 13.816-4.3633 16.363-11.453 3.2734-9.0898-1.2734-19.09-10.363-22.363-5.0898-1.8164-10.363-3.4531-15.637-4.9102-5.8164-19.09-9.0898-38.727-9.0898-58.547 0-109.09 88.727-197.82 197.82-197.82 95.273 0 176.91 67.637 194.36 160.91 1.8164 9.0898 2.9102 18.547 3.2734 27.816 0.36328 9.2734 8.1836 16.727 17.453 16.727h0.72656c9.6367-0.36328 17.09-8.5469 16.547-18.184-0.36328-6.7266-0.91016-13.453-1.8164-20.184 18.363-10.91 39.273-16.91 60.91-16.91 66.547 0 120.55 54.184 120.55 120.73 0 11.453-1.6367 22.547-4.7266 33.09-6.1836 0-12.184 0.36328-18.363 1.2734-9.6367 1.2734-16.184 10-14.91 19.637 1.0898 8.7266 8.7266 15.09 17.273 15.09 0.72656 0 1.6367 0 2.3633-0.18359 8.1836-1.0898 16.547-1.2734 24.727-0.72656h0.18359c61.816 4.7266 110 56.91 110 118.91 0.72266 65.461-52.73 118.73-118.37 118.73z" fill="#ffefd4"/>
 <path d="m413.64 766.73c0.54688-70 58-126.91 128-126.91 9.6367 0 17.453-7.8164 17.453-17.453s-7.8164-17.453-17.453-17.453c-89.09 0-162.18 72.547-162.91 161.45 0 9.6367 7.6367 17.453 17.273 17.637h0.18359c9.6328 0 17.453-7.8164 17.453-17.273z" fill="#ffefd4"/>
 <path d="m584.18 973.09h-12.363v-74.363c0-18.547-15.09-33.637-33.637-33.637h-50.547c-18.547 0-33.637 15.09-33.637 33.637v74.363h-12.184c-13.453 0-25.09 7.6367-30.547 19.816-5.4531 12.184-3.4531 26 5.2734 36l71.273 81.273c6.3633 7.2734 15.637 11.453 25.273 11.453 9.6367 0 18.91-4.1836 25.273-11.453l71.273-81.273c8.7266-10 10.91-23.816 5.2734-36-5.6367-12.18-17.457-19.816-30.727-19.816zm-71.273 113.09-68.363-78.184h26.91c9.6367 0 17.453-7.8164 17.453-17.453v-90.547h48v90.547c0 9.6367 7.8164 17.453 17.453 17.453h27.09z" fill="#ffefd4"/>
 <path d="m747.45 806.73c-12.727-14.547-37.816-14.547-50.547 0l-71.273 81.273c-8.7266 10-10.91 23.816-5.2734 36 5.4531 12.184 17.273 19.816 30.547 19.816h12.363l0.003907 74.367c0 18.547 15.09 33.637 33.637 33.637h50.547c18.547 0 33.637-15.09 33.637-33.637v-74.363h12.363c13.273 0 25.09-7.6367 30.547-19.816 5.4531-12.184 3.4531-26-5.2734-36zm16.184 102.18c-9.6367 0-17.453 7.8164-17.453 17.453v90.547h-48v-90.547c0-9.6367-7.8164-17.453-17.453-17.453h-27.09l68.363-78.184 68.363 78.184z" fill="#ffefd4"/>
</svg>
