<?xml version="1.0" encoding="UTF-8"?>
<svg width="1200pt" height="1200pt" version="1.1" viewBox="0 0 1200 1200" xmlns="http://www.w3.org/2000/svg">
 <path d="m1039 964.02-150 150c-7.3242 7.3242-16.922 10.984-26.516 10.984s-19.191-3.6641-26.516-10.988l-150-150c-14.648-14.648-14.648-38.379 0-53.027s38.379-14.648 53.027 0l85.988 85.988v-284.47c0-20.727 16.789-37.5 37.5-37.5s37.5 16.773 37.5 37.5v284.47l85.988-85.988c14.648-14.648 38.379-14.648 53.027 0s14.648 38.383 0 53.031zm-299.98 123.48c0 20.727-16.789 37.5-37.5 37.5h-514.03c-20.711 0-37.5-16.773-37.5-37.5v-750c0-5.0156 1.0234-9.9141 2.9141-14.445 1.9062-4.5625 4.6602-8.6641 8.1055-12.102l224.97-224.97c7.0312-7.0273 16.57-10.984 26.512-10.984h450c20.711 0 37.5 16.773 37.5 37.5v460.95c0 20.727-16.789 37.5-37.5 37.5s-37.5-16.773-37.5-37.5v-423.45h-375v187.5c0 20.727-16.789 37.5-37.5 37.5h-187.5v675h476.53c20.711 0 37.5 16.773 37.5 37.5zm-364.03-787.5v-96.973l-96.973 96.973z" fill="#ffefd4"/>
</svg>
