<?xml version="1.0" encoding="UTF-8"?>
<svg width="1200pt" height="1200pt" version="1.1" viewBox="0 0 1200 1200" xmlns="http://www.w3.org/2000/svg">
 <path d="m1076.4 816.6v210.9c0 4.1992-0.60156 8.1016-1.5 11.699-4.1992 20.699-22.5 36.301-44.102 36.301h-861.9c-23.102 0-42.301-17.699-44.699-40.199-0.60156-2.6992-0.60156-5.1016-0.60156-8.1016v-210.9c0-24.898 20.398-45 45-45 12.301 0 23.699 5.1016 31.801 13.199 8.1016 8.1016 13.199 19.5 13.199 31.801v168.9h773.1v-168.9c0-24.898 20.398-45 45-45 12.301 0 23.699 5.1016 31.801 13.199 7.8008 8.3984 12.898 19.801 12.898 32.102z" fill="#ffefd4"/>
 <path d="m859.5 605.4-221.1 221.1c-0.30078 0.60156-0.89844 0.89844-1.1992 1.1992-8.1016 8.1016-18.602 13.199-29.102 14.699-0.89844 0-1.8008 0.30078-2.6992 0.30078-1.8008 0.30078-3.6016 0.30078-5.3984 0.30078l-5.1016-0.30078c-0.89844 0-1.8008-0.30078-2.6992-0.30078-10.801-1.5-21-6.6016-29.102-14.699-0.30078-0.30078-0.89844-0.89844-1.1992-1.1992l-221.1-221.1c-10.199-10.199-15.301-23.699-15.301-37.199s5.1016-27 15.301-37.199c20.398-20.398 53.699-20.398 74.398 0l132.9 132.9 0.007812-486.9c0-28.801 23.699-52.5 52.5-52.5 14.398 0 27.602 6 37.199 15.301 9.6016 9.6016 15.301 22.5 15.301 37.199v486.9l132.9-132.9c20.398-20.398 53.699-20.398 74.398 0 19.5 20.699 19.5 54-0.89844 74.398z" fill="#ffefd4"/>
</svg>
