<?xml version="1.0" encoding="UTF-8"?>
<svg width="1200pt" height="1200pt" version="1.1" viewBox="0 0 1200 1200" xmlns="http://www.w3.org/2000/svg">
 <path d="m431.26 243.74h131.26c10.359 0 18.75-8.3906 18.75-18.75v-75c0-10.359-8.3906-18.75-18.75-18.75h-131.26c-10.359 0-18.75 8.3906-18.75 18.75v75c0 10.359 8.3906 18.75 18.75 18.75zm18.75-75h93.75v37.5h-93.75zm468.74 507.19v-432.19c0-4.9688-1.9688-9.75-5.4844-13.266l-187.5-187.5c-3.5156-3.5156-8.2969-5.4844-13.266-5.4844h-562.5c-51.703 0-93.75 42.047-93.75 93.75v712.5c0 51.703 42.047 93.75 93.75 93.75h507.19c9.6562 125.68 114.75 225 242.81 225 134.39 0 243.74-109.36 243.74-243.74 0-128.06-99.328-233.16-225-242.81zm-675-600.94h375v206.26c0 10.359-8.3906 18.75-18.75 18.75h-337.5c-10.359 0-18.75-8.3906-18.75-18.75zm-37.5 506.26v318.74h-56.25c-31.031 0-56.25-25.219-56.25-56.25v-712.5c0-31.031 25.219-56.25 56.25-56.25h56.25v206.26c0 31.031 25.219 56.25 56.25 56.25h337.5c31.031 0 56.25-25.219 56.25-56.25v-206.26h48.469l176.53 176.53v424.45c-41.203 3.1406-79.547 16.547-112.5 37.734v-132.47c0-31.031-25.219-56.25-56.25-56.25h-450c-31.031 0-56.25 25.219-56.25 56.25zm37.5 318.74v-318.74c0-10.359 8.3906-18.75 18.75-18.75h450c10.359 0 18.75 8.3906 18.75 18.75v162c-41.906 40.312-69.328 95.344-74.062 156.74zm656.26 225c-113.72 0-206.26-92.531-206.26-206.26 0-113.73 92.531-206.26 206.26-206.26 113.73 0 206.26 92.531 206.26 206.26 0 113.73-92.531 206.26-206.26 206.26zm88.266-182.02c7.3125 7.3125 7.3125 19.172 0 26.531l-75 75c-3.6562 3.6562-8.4844 5.4844-13.266 5.4844s-9.6094-1.8281-13.266-5.4844l-75-75c-7.3125-7.3125-7.3125-19.172 0-26.531 7.3125-7.3125 19.172-7.3125 26.531 0l42.984 42.984v-198.47c0-10.359 8.3906-18.75 18.75-18.75 10.359 0 18.75 8.3906 18.75 18.75v198.47l42.984-42.984c7.3125-7.3125 19.219-7.3125 26.531 0zm-313.26-267.98c0 10.359-8.3906 18.75-18.75 18.75h-337.5c-10.359 0-18.75-8.3906-18.75-18.75s8.3906-18.75 18.75-18.75h337.5c10.359 0 18.75 8.3906 18.75 18.75zm-131.26 112.5c0 10.359-8.3906 18.75-18.75 18.75h-206.26c-10.359 0-18.75-8.3906-18.75-18.75s8.3906-18.75 18.75-18.75h206.26c10.359 0 18.75 8.3906 18.75 18.75z" fill="#ffefd4"/>
</svg>
