<?xml version="1.0" encoding="UTF-8"?>
<svg width="1200pt" height="1200pt" version="1.1" viewBox="0 0 1200 1200" xmlns="http://www.w3.org/2000/svg">
 <path d="m618.74 1027.1h-290.11c-53.766 0-97.406-43.594-97.406-97.406v-775.97c0-25.828 10.219-50.625 28.5-68.906s43.031-28.547 68.906-28.547h426.89c5.0156 0 9.7969 1.9688 13.266 5.4844l194.44 194.48c3.4688 3.4688 5.4844 8.2031 5.4844 13.219v507.66l52.031 52.031c10.969 10.969 17.156 25.875 17.156 41.391v206.72c0 36.703-29.719 66.469-66.469 66.469h-286.26c-36.703 0-66.469-29.719-66.469-66.469v-50.203zm118.03-933.32h-408.14c-15.844 0-31.125 6.2812-42.328 17.531-11.25 11.25-17.531 26.484-17.531 42.375v775.97c0 33.094 26.812 59.906 59.906 59.906h290.11v-198.56c0-36.703 29.719-66.469 66.469-66.469h206.72c14.531 0 28.594 5.3906 39.281 15.141v-451.55h-125.34c-18.281 0-35.906-7.2656-48.844-20.203-12.984-12.984-20.25-30.562-20.25-48.844v-125.34zm-80.531 697.26v286.26c0 15.984 12.984 28.969 28.969 28.969h28.969v-124.4c0-10.359 8.3438-18.75 18.75-18.75h206.16c10.359 0 18.75 8.3906 18.75 18.75v124.4h13.594c16.031 0 28.969-12.984 28.969-28.969v-206.72c0-5.5781-2.2031-10.922-6.1406-14.906l-87.469-87.469c-3.2812-3.2812-7.5-5.3438-12-5.9531v76.453c0 10.359-8.3906 18.75-18.75 18.75h-143.16c-10.406 0-18.75-8.3906-18.75-18.75v-76.641h-28.969c-15.984 0-28.969 12.938-28.969 28.969zm201.1-28.969h-105.66v57.891h105.66zm63.047 238.55h-168.66v100.36h168.66zm-122.95 68.906c-10.359 0-18.75-8.3906-18.75-18.75s8.3906-18.75 18.75-18.75h77.203c10.359 0 18.75 8.3906 18.75 18.75s-8.3906 18.75-18.75 18.75zm-437.9-576.32c-10.359 0-18.75-8.3906-18.75-18.75s8.3906-18.75 18.75-18.75h466.64c10.359 0 18.75 8.3906 18.75 18.75s-8.3906 18.75-18.75 18.75zm0-116.72c-10.359 0-18.75-8.3906-18.75-18.75s8.3906-18.75 18.75-18.75h272.21c10.359 0 18.75 8.3906 18.75 18.75s-8.3906 18.75-18.75 18.75zm0-116.67c-10.359 0-18.75-8.3906-18.75-18.75s8.3906-18.75 18.75-18.75h272.21c10.359 0 18.75 8.3906 18.75 18.75s-8.3906 18.75-18.75 18.75zm0 350.02c-10.359 0-18.75-8.3906-18.75-18.75s8.3906-18.75 18.75-18.75h466.64c10.359 0 18.75 8.3906 18.75 18.75s-8.3906 18.75-18.75 18.75zm0 116.67c-10.359 0-18.75-8.3906-18.75-18.75s8.3906-18.75 18.75-18.75h155.53c10.359 0 18.75 8.3906 18.75 18.75s-8.3906 18.75-18.75 18.75zm0 116.67c-10.359 0-18.75-8.3906-18.75-18.75s8.3906-18.75 18.75-18.75h155.53c10.359 0 18.75 8.3906 18.75 18.75s-8.3906 18.75-18.75 18.75zm414.84-722.9v98.859c0 8.3438 3.3281 16.406 9.2812 22.312 5.9062 5.9062 13.969 9.2812 22.312 9.2812h98.859z" fill="#ffefd4" fill-rule="evenodd"/>
</svg>
