<?xml version="1.0" encoding="UTF-8"?>
<svg width="1200pt" height="1200pt" version="1.1" viewBox="0 0 1200 1200" xmlns="http://www.w3.org/2000/svg">
 <path d="m233.51 352.12h331.94c12.559 0 24.164-6.6992 30.445-17.578s6.2812-24.277 0-35.156-17.887-17.578-30.445-17.578h-331.94c-12.559 0-24.164 6.6992-30.445 17.578s-6.2812 24.277 0 35.156 17.887 17.578 30.445 17.578z" fill="#ffefd4"/>
 <path d="m233.51 479.3h535.41c12.562 0 24.168-6.6992 30.445-17.578 6.2812-10.879 6.2812-24.277 0-35.156-6.2773-10.879-17.883-17.578-30.445-17.578h-535.41c-12.559 0-24.164 6.6992-30.445 17.578s-6.2812 24.277 0 35.156 17.887 17.578 30.445 17.578z" fill="#ffefd4"/>
 <path d="m983.8 391.51c-28.637-0.074219-56.336 10.211-77.984 28.957v-332.41c0-9.3242-3.7031-18.266-10.297-24.859s-15.535-10.297-24.859-10.297h-738.88c-9.3242 0-18.266 3.7031-24.859 10.297-6.5898 6.5938-10.297 15.535-10.297 24.859v868.02c0 9.2188 3.6172 18.07 10.078 24.648l153.25 155.86h0.003907c6.6055 6.7227 15.637 10.508 25.066 10.508h585.64c9.3242 0 18.266-3.7031 24.859-10.297s10.297-15.535 10.297-24.859v-353.73l162.54-162.54v-0.003906c22.426-22.426 35.023-52.84 35.023-84.555 0-31.719-12.602-62.133-35.027-84.559-22.426-22.426-52.84-35.023-84.555-35.027zm0 70.312c13.066 0 25.602 5.1914 34.844 14.43 9.2383 9.2422 14.43 21.773 14.43 34.844 0 13.066-5.1914 25.602-14.434 34.84l-14.137 14.137-69.684-69.684 14.141-14.137c9.2188-9.2695 21.766-14.465 34.84-14.43zm-98.695 78.281 9.9805 9.9805-321.31 321.32-9.9805-9.9805zm-349.94 392.11 13.742 13.746 13.746 13.746-34.785 7.3242zm98.316-1.1172-9.9844-9.9844 321.3-321.3 9.9844 9.9844zm-383.61 94.941-34.219-34.805h34.219zm585.63 50.742h-515.32v-120.7c0-9.3242-3.7031-18.266-10.297-24.859s-15.535-10.297-24.859-10.297h-118.09v-797.7h668.57v367.05l-50.023 50.023v0.003906c-5.0938-2.7266-10.781-4.1523-16.559-4.1445h-535.41c-12.559 0-24.164 6.6992-30.445 17.578s-6.2812 24.277 0 35.156 17.887 17.578 30.445 17.578h485.79l-56.855 56.855h-428.93c-12.559 0-24.164 6.7031-30.445 17.578-6.2812 10.879-6.2812 24.281 0 35.156 6.2812 10.879 17.887 17.578 30.445 17.578h358.62l-102.92 102.92c-0.75391 0.75391-1.4531 1.543-2.1289 2.3594-0.21484 0.25391-0.41797 0.51953-0.625 0.78125-0.46875 0.58594-0.89844 1.1875-1.3242 1.8008-0.19141 0.27734-0.39453 0.55469-0.57812 0.83594-0.51953 0.80469-1.0117 1.6289-1.4609 2.4727-0.1875 0.35156-0.35156 0.70312-0.52734 1.0664-0.27734 0.55859-0.54297 1.1211-0.78516 1.6953-0.17578 0.40234-0.33984 0.80469-0.49609 1.2148-0.23437 0.60938-0.44922 1.2266-0.64844 1.8516-0.10938 0.33203-0.23438 0.66016-0.32422 0.99609-0.25 0.84766-0.46484 1.707-0.64844 2.5781l-31.641 151.05h-0.003906c-2.4336 11.613 1.1562 23.676 9.5508 32.066 8.3906 8.3945 20.453 11.984 32.066 9.5508l151.05-31.641c0.87109-0.18359 1.7305-0.40234 2.5781-0.64844 0.33594-0.097656 0.66016-0.21875 0.99609-0.32422 0.62109-0.19922 1.2422-0.41406 1.8555-0.64844 0.40625-0.15625 0.8125-0.32422 1.2109-0.49609 0.57812-0.24609 1.1406-0.51172 1.6953-0.78906 0.35547-0.17578 0.71484-0.33984 1.0625-0.52734 0.84375-0.45313 1.668-0.94141 2.4688-1.4609 0.28906-0.18359 0.56641-0.39062 0.84766-0.58594 0.60938-0.41797 1.2031-0.85547 1.7891-1.3164 0.26563-0.20703 0.52734-0.41406 0.78906-0.63281 0.80859-0.67578 1.6016-1.375 2.3438-2.1289l177.17-177.16z" fill="#ffefd4"/>
</svg>
