<?xml version="1.0" encoding="UTF-8"?>
<svg width="1200pt" height="1200pt" version="1.1" viewBox="0 0 1200 1200" xmlns="http://www.w3.org/2000/svg">
 <path d="m925.74 925.74v120c0 56.719-46.125 102.84-102.84 102.84h-548.63c-56.719 0-102.84-46.125-102.84-102.84v-891.47c0-56.719 46.125-102.84 102.84-102.84h548.58c56.719 0 102.84 46.125 102.84 102.84v120c0 18.938-15.328 34.266-34.266 34.266s-34.266-15.328-34.266-34.266v-120c0-18.891-15.375-34.266-34.266-34.266h-548.63c-18.891 0-34.266 15.375-34.266 34.266v891.42c0 18.891 15.375 34.266 34.266 34.266h548.58c18.891 0 34.266-15.375 34.266-34.266v-120c0-18.938 15.328-34.266 34.266-34.266s34.266 15.328 34.266 34.266zm97.078-306.74c0.5625-0.79688 0.9375-1.6875 1.3594-2.5312 0.60938-1.125 1.2656-2.1562 1.7812-3.375 0.46875-1.125 0.70312-2.2969 1.0781-3.4219 0.28125-0.98438 0.65625-1.9219 0.89062-2.9531 0.89062-4.4531 0.89062-9 0-13.406-0.1875-1.0312-0.60938-1.9688-0.89062-2.9531-0.32812-1.125-0.60938-2.2969-1.0781-3.4219-0.46875-1.1719-1.1719-2.25-1.7812-3.375-0.46875-0.84375-0.84375-1.7344-1.3594-2.5312-1.2656-1.875-2.7188-3.6562-4.3125-5.25l-188.53-188.53c-13.406-13.406-35.109-13.406-48.469 0-13.406 13.406-13.406 35.109 0 48.469l130.03 130.03h-397.22c-18.938 0-34.266 15.328-34.266 34.266s15.328 34.266 34.266 34.266h397.22l-130.03 130.03c-13.406 13.406-13.406 35.109 0 48.469 6.7031 6.7031 15.469 10.031 24.234 10.031s17.531-3.3281 24.234-10.031l188.53-188.53c1.5938-1.5938 3.0469-3.375 4.3125-5.25z" fill="#ffefd4"/>
</svg>
