<?xml version="1.0" encoding="UTF-8"?>
<svg width="1200pt" height="1200pt" version="1.1" viewBox="0 0 1200 1200" xmlns="http://www.w3.org/2000/svg">
 <path d="m737.16 1080h-514.31c-18.891 0-34.266-15.375-34.266-34.266v-891.47c0-18.891 15.375-34.266 34.266-34.266h342.84v240c0 56.719 46.125 102.84 102.84 102.84h274.26c2.25 0 4.5-0.23438 6.7031-0.65625 1.0312-0.1875 1.9688-0.60938 2.9531-0.89062 1.125-0.32812 2.2969-0.60938 3.4219-1.0781 1.1719-0.46875 2.25-1.1719 3.375-1.7812 0.84375-0.46875 1.7344-0.84375 2.5312-1.3594 3.75-2.5312 6.9844-5.7656 9.5156-9.5156 0.5625-0.79688 0.9375-1.6875 1.3594-2.5312 0.60938-1.125 1.2656-2.1562 1.7812-3.375 0.46875-1.125 0.70312-2.2969 1.0781-3.4219 0.28125-0.98438 0.65625-1.9219 0.89062-2.9531 0.89062-4.4531 0.89062-9 0-13.406-0.1875-1.0312-0.60938-1.9688-0.89062-2.9531-0.32812-1.125-0.60938-2.2969-1.0781-3.4219-0.46875-1.1719-1.1719-2.25-1.7812-3.375-0.46875-0.84375-0.84375-1.7344-1.3594-2.5312-1.2656-1.875-2.7188-3.6562-4.3125-5.25l-342.71-342.84c-1.5938-1.5938-3.3281-3-5.2031-4.2656-0.46875-0.32812-0.98438-0.51562-1.4531-0.79688-1.4531-0.84375-2.8594-1.7344-4.4531-2.3906-0.65625-0.28125-1.3594-0.42188-2.0156-0.60938-1.4531-0.51562-2.8594-1.0312-4.3594-1.3125-2.2031-0.46875-4.5-0.70312-6.7969-0.70312h-377.16c-56.719 0-102.84 46.125-102.84 102.84v891.42c0 56.719 46.125 102.84 102.84 102.84h514.26c18.938 0 34.266-15.328 34.266-34.266s-15.328-34.266-34.266-34.266zm-102.89-720v-191.53l225.79 225.79h-191.53c-18.891 0-34.266-15.375-34.266-34.266zm435.66 435.71-188.53 188.53c-6.7031 6.7031-15.469 10.031-24.234 10.031-8.7656 0-17.531-3.3281-24.234-10.031-13.406-13.406-13.406-35.109 0-48.469l130.03-130.03h-414.37c-18.938 0-34.266-15.328-34.266-34.266s15.328-34.266 34.266-34.266h414.37l-130.03-130.03c-13.406-13.406-13.406-35.109 0-48.469 13.406-13.406 35.109-13.406 48.469 0l188.53 188.53c1.5938 1.5938 3.0469 3.375 4.3125 5.25 0.5625 0.79688 0.9375 1.6875 1.3594 2.5312 0.60938 1.125 1.2656 2.1562 1.7812 3.375 0.46875 1.125 0.70313 2.2969 1.0781 3.4219 0.28125 0.98438 0.65625 1.9219 0.89062 2.9531 0.89063 4.4531 0.89063 9 0 13.406-0.1875 1.0312-0.60937 1.9688-0.89062 2.9531-0.32813 1.125-0.60938 2.2969-1.0781 3.4219-0.46875 1.1719-1.1719 2.25-1.7812 3.375-0.46875 0.84375-0.84375 1.7344-1.3594 2.5312-1.2656 1.875-2.7188 3.6562-4.3125 5.25z" fill="#ffefd4"/>
</svg>
