<?xml version="1.0" encoding="UTF-8"?>
<svg width="1200pt" height="1200pt" version="1.1" viewBox="0 0 1200 1200" xmlns="http://www.w3.org/2000/svg">
 <path d="m600 750h450c20.719 0 37.5-16.781 37.5-37.5s-16.781-37.5-37.5-37.5h-450c-20.719 0-37.5 16.781-37.5 37.5s16.781 37.5 37.5 37.5z" fill="#ffefd4" fill-rule="evenodd"/>
 <path d="m910.97 589.03 123.47 123.47-123.47 123.47c-14.625 14.625-14.625 38.391 0 53.016s38.391 14.625 53.016 0l150-150c14.672-14.625 14.672-38.391 0-53.016l-150-150c-14.625-14.625-38.391-14.625-53.016 0s-14.625 38.391 0 53.016z" fill="#ffefd4" fill-rule="evenodd"/>
 <path d="m525 187.5v150c0 62.156 50.344 112.5 112.5 112.5h150c20.719 0 37.5-16.781 37.5-37.5s-16.781-37.5-37.5-37.5h-150c-20.719 0-37.5-16.781-37.5-37.5v-150c0-20.719-16.781-37.5-37.5-37.5s-37.5 16.781-37.5 37.5z" fill="#ffefd4" fill-rule="evenodd"/>
 <path d="m862.5 562.5v-150c0-9.9375-3.9375-19.5-10.969-26.531l-262.5-262.5c-7.0312-7.0312-16.594-10.969-26.531-10.969h-300c-29.859 0-58.453 11.859-79.547 32.953s-32.953 49.688-32.953 79.547v750c0 29.859 11.859 58.453 32.953 79.547s49.688 32.953 79.547 32.953h487.5c29.859 0 58.453-11.859 79.547-32.953s32.953-49.688 32.953-79.547v-112.5c0-20.719-16.781-37.5-37.5-37.5s-37.5 16.781-37.5 37.5v112.5c0 9.9375-3.9375 19.5-10.969 26.531s-16.594 10.969-26.531 10.969h-487.5c-9.9375 0-19.5-3.9375-26.531-10.969s-10.969-16.594-10.969-26.531v-750c0-9.9375 3.9375-19.5 10.969-26.531s16.594-10.969 26.531-10.969h284.48l240.52 240.52v134.48c0 20.719 16.781 37.5 37.5 37.5s37.5-16.781 37.5-37.5z" fill="#ffefd4" fill-rule="evenodd"/>
</svg>
